<svg width="606" height="132" viewBox="0 0 606 132" fill="none" xmlns="http://www.w3.org/2000/svg">
<rect width="606" height="131.04" fill="#FFDB00"/>
<g clip-path="url(#clip0_2099_4307)">
<path fill-rule="evenodd" clip-rule="evenodd" d="M61.317 84.4099H98.1775L100.226 86.5344L100.228 86.5367C101.339 87.6789 102.802 88.2999 104.37 88.2999C105.942 88.2999 107.412 87.6762 108.51 86.5388L110.563 84.4099H122.793L122.096 86.4047C120.734 90.3032 117.032 93.1199 112.66 93.1199H95.97C95.5785 93.1199 95.26 93.4383 95.26 93.8299V94H88.97V93.8299C88.97 93.4383 88.6516 93.1199 88.26 93.1199H85.93C85.5385 93.1199 85.22 93.4383 85.22 93.8299V94H79.89V93.8299C79.89 93.4383 79.5716 93.1199 79.18 93.1199H78.65C78.2585 93.1199 77.94 93.4383 77.94 93.8299V94H72.16V93.8299C72.16 93.4383 71.8416 93.1199 71.45 93.1199C67.0888 93.1199 63.3765 90.3042 62.014 86.4047L61.317 84.4099Z" fill="#F8B761"/>
<path fill-rule="evenodd" clip-rule="evenodd" d="M80.1106 40.6408L80.7372 40.0141L81.4301 40.581C81.6495 40.7605 81.78 41.0222 81.78 41.3101C81.78 41.8477 81.3455 42.2801 80.81 42.2801C80.2784 42.2801 79.84 41.8417 79.84 41.3101C79.84 41.0363 79.9459 40.8055 80.1106 40.6408ZM83.2011 37.5503L80.2385 37.9201H78.1778L78.4552 38.147C70.9228 39.2469 64.7599 44.5801 62.4446 51.6428L61.7997 53.6101H122.319L121.675 51.6433C119.071 43.6881 111.59 37.9201 102.77 37.9201H98.152L98.1301 39.3979C98.1221 39.9371 97.6913 40.3601 97.16 40.3601C96.6286 40.3601 96.1978 39.9371 96.1898 39.3979L96.1679 37.9201H82.8313L83.2011 37.5503ZM89.34 44.6801C89.34 44.1485 89.7784 43.7101 90.31 43.7101C90.8415 43.7101 91.28 44.1485 91.28 44.6801C91.28 45.2117 90.8415 45.6501 90.31 45.6501C89.7723 45.6501 89.34 45.2156 89.34 44.6801ZM100.48 45.1501C100.48 44.6185 100.918 44.1801 101.45 44.1801C101.982 44.1801 102.42 44.6185 102.42 45.1501C102.42 45.6817 101.982 46.1201 101.45 46.1201C100.912 46.1201 100.48 45.6856 100.48 45.1501Z" fill="#F8B761"/>
<path fill-rule="evenodd" clip-rule="evenodd" d="M59.7 75.46C58.9301 75.46 58.2413 75.7075 57.6795 76.0875L57.6704 76.0937L57.6614 76.1C56.7583 76.7305 56.13 77.7957 56.13 79.02V79.43C56.13 80.6397 56.7361 81.7137 57.6672 82.354C58.2375 82.75 58.9429 82.99 59.7 82.99H96.8039L92.939 78.9879L89.5259 75.46H59.7Z" fill="#CE8452"/>
<path fill-rule="evenodd" clip-rule="evenodd" d="M124.41 75.46H119.214L111.936 82.99H124.41C125.18 82.99 125.869 82.7424 126.43 82.3624L126.44 82.3562L126.449 82.3499C127.352 81.7194 127.98 80.6542 127.98 79.43V79.02C127.98 77.8102 127.374 76.7362 126.443 76.096C125.872 75.6999 125.167 75.46 124.41 75.46Z" fill="#CE8452"/>
<path fill-rule="evenodd" clip-rule="evenodd" d="M92.06 64.5601C87.6354 64.5601 85.411 65.1641 83.1637 65.7743L83.0969 65.7924L83.0907 65.7942C80.7683 66.4355 78.4328 67.0801 73.74 67.0801C69.065 67.0801 66.7394 66.4405 64.4138 65.8009L64.3948 65.7957C64.0294 65.6914 63.6775 65.5983 63.3235 65.5073L61.45 65.0255V74.0401H122.67V65.0255L120.796 65.5073C120.593 65.5596 120.358 65.6239 120.14 65.6832L120.14 65.6833C119.996 65.7227 119.86 65.76 119.746 65.79L119.738 65.792L119.731 65.7942C117.408 66.4355 115.073 67.0801 110.38 67.0801C105.705 67.0801 103.379 66.4405 101.054 65.8009L101.029 65.7941L83.1637 65.7743L101.028 65.7938C98.7488 65.1647 96.5249 64.5601 92.06 64.5601Z" fill="#FF6868"/>
<path fill-rule="evenodd" clip-rule="evenodd" d="M117.257 75.46H91.5132L95.8932 79.99H95.8832L101.261 85.5519C102.113 86.4342 103.247 86.88 104.38 86.88C105.521 86.88 106.637 86.4291 107.49 85.5614L117.257 75.46Z" fill="#FFF56A"/>
<path fill-rule="evenodd" clip-rule="evenodd" d="M122.499 55.03H61.6109L61.5136 56.4256C61.5085 56.4984 61.5027 56.5756 61.4966 56.6564C61.4707 56.9994 61.4399 57.4082 61.4399 57.82V63.6033L62.6027 63.8716C63.26 64.0233 63.8796 64.1896 64.5098 64.3587L64.7665 64.4275C67.044 65.0561 69.2678 65.66 73.7299 65.66H73.7399C78.2058 65.66 80.4298 65.0551 82.7092 64.4259C85.0315 63.7846 87.3671 63.14 92.0599 63.14C94.4967 63.14 96.2952 63.3138 97.7881 63.5708C97.7884 63.5708 97.7886 63.5708 97.7889 63.5709C99.1597 63.8069 100.273 64.113 101.386 64.4192L101.411 64.426L101.412 64.4263C103.691 65.0554 105.915 65.66 110.38 65.66C114.845 65.66 117.079 65.0554 119.351 64.4255L119.357 64.4238C120.05 64.2286 120.744 64.0454 121.503 63.8725L122.67 63.6067V57.82C122.67 57.4083 122.639 56.9995 122.613 56.6565L122.613 56.6564L122.613 56.656C122.607 56.5753 122.601 56.4982 122.596 56.4256L122.499 55.03Z" fill="#89D76A"/>
<path d="M177.27 78.19H167.65V51.36C167.69 50.59 167.59 50.09 167.35 49.85C167.11 49.61 166.61 49.51 165.84 49.55H159.96C159.19 49.51 158.68 49.61 158.45 49.85C158.21 50.09 158.11 50.59 158.15 51.36V84.41C158.11 85.18 158.21 85.68 158.45 85.92C158.69 86.16 159.19 86.26 159.96 86.22H177.28C178.05 86.26 178.55 86.16 178.79 85.92C179.03 85.68 179.13 85.18 179.09 84.42V80C179.13 79.23 179.03 78.74 178.79 78.5C178.55 78.26 178.05 78.16 177.28 78.2L177.27 78.19Z" fill="black"/>
<path d="M220.66 84.02L208.18 50.91C207.96 50.25 207.76 49.85 207.58 49.7C207.4 49.56 206.94 49.5 206.21 49.54H198.79C198.16 49.5 197.74 49.54 197.52 49.65C197.3 49.76 197.1 50.03 196.91 50.48L196.75 50.92L184.05 84.03C183.87 84.43 183.77 84.69 183.75 84.8C183.73 84.91 183.72 85.04 183.72 85.18C183.72 85.58 183.85 85.86 184.11 86C184.37 86.15 184.84 86.22 185.54 86.22H191.81C192.54 86.26 193 86.2 193.18 86.05C193.36 85.9 193.58 85.5 193.84 84.84L195.82 79.84H208.97L210.84 84.79C211.06 85.49 211.27 85.91 211.47 86.05C211.67 86.2 212.12 86.25 212.82 86.22H219.2C219.9 86.22 220.37 86.15 220.63 86C220.89 85.86 221.01 85.6 221.01 85.23C221.01 85.05 220.99 84.89 220.96 84.76C220.92 84.63 220.83 84.39 220.69 84.02H220.66ZM198.44 72.53L202.46 60.82L206.36 72.53H198.44Z" fill="black"/>
<path d="M253.55 49.54H247.67C246.9 49.5 246.4 49.6 246.16 49.84C245.92 50.08 245.82 50.58 245.86 51.35V69.35C245.86 70.3 245.86 71.11 245.83 71.77C245.81 72.43 245.77 72.99 245.69 73.44C245.62 73.9 245.52 74.3 245.39 74.65C245.26 75 245.09 75.35 244.87 75.72C244.36 76.63 243.61 77.36 242.62 77.89C241.63 78.42 240.53 78.69 239.32 78.69C238.11 78.69 237.09 78.44 236.16 77.95C235.22 77.46 234.5 76.77 233.99 75.89C233.77 75.49 233.59 75.12 233.44 74.79C233.29 74.46 233.18 74.07 233.11 73.61C233.04 73.15 232.99 72.59 232.97 71.91C232.95 71.23 232.94 70.38 232.94 69.36V51.36C232.98 50.59 232.88 50.09 232.64 49.85C232.4 49.61 231.9 49.51 231.13 49.55H225.25C224.48 49.51 223.98 49.61 223.74 49.85C223.5 50.09 223.4 50.59 223.44 51.36V70.72C223.44 73.43 223.64 75.61 224.05 77.26C224.45 78.91 225.13 80.38 226.08 81.66C227.36 83.38 229.16 84.73 231.47 85.7C233.78 86.67 236.35 87.16 239.17 87.16C244.56 87.16 248.77 85.44 251.82 81.99C252.48 81.26 253.04 80.5 253.5 79.73C253.96 78.96 254.32 78.14 254.6 77.26C254.87 76.38 255.07 75.41 255.2 74.34C255.33 73.28 255.39 72.07 255.39 70.71V51.35C255.43 50.58 255.33 50.08 255.09 49.84C254.85 49.6 254.35 49.5 253.58 49.54H253.55Z" fill="black"/>
<path d="M296.88 49.54H290.99C290.22 49.5 289.72 49.6 289.48 49.84C289.24 50.08 289.14 50.58 289.18 51.35V71.97L272.41 50.52C272.12 50.15 271.93 49.93 271.86 49.86C271.79 49.79 271.69 49.71 271.59 49.64C271.48 49.57 271.37 49.53 271.26 49.53H263.95C263.18 49.49 262.67 49.59 262.44 49.83C262.2 50.07 262.1 50.57 262.14 51.34V84.39C262.1 85.16 262.2 85.66 262.44 85.9C262.68 86.14 263.18 86.24 263.95 86.2H269.83C270.6 86.24 271.1 86.14 271.34 85.9C271.58 85.66 271.68 85.16 271.64 84.39V63.77L288.41 85.22C288.7 85.59 288.89 85.81 288.96 85.88C289.03 85.95 289.12 86.03 289.23 86.1C289.34 86.17 289.45 86.21 289.56 86.21H296.87C297.64 86.25 298.14 86.15 298.38 85.91C298.62 85.67 298.72 85.17 298.68 84.4V51.35C298.72 50.58 298.62 50.08 298.38 49.84C298.14 49.6 297.64 49.5 296.87 49.54H296.88Z" fill="black"/>
<path d="M332.02 50.52C331.76 50.34 331.31 50.14 330.67 49.92C330.03 49.7 329.31 49.51 328.52 49.34C327.73 49.17 326.92 49.04 326.07 48.93C325.23 48.82 324.49 48.77 323.87 48.77C321.16 48.77 318.62 49.27 316.25 50.28C313.89 51.29 311.82 52.66 310.06 54.4C308.3 56.14 306.92 58.2 305.91 60.56C304.9 62.93 304.4 65.46 304.4 68.18C304.4 73.2 306.01 77.42 309.24 80.83C311.15 82.85 313.4 84.41 316 85.53C318.6 86.65 321.28 87.21 324.03 87.21C324.62 87.21 325.15 87.19 325.62 87.16C326.1 87.12 326.6 87.05 327.13 86.94C327.66 86.83 328.27 86.68 328.95 86.5C329.63 86.32 330.46 86.06 331.45 85.73C331.67 85.69 331.85 85.62 332 85.51C332.18 85.36 332.3 85.21 332.36 85.04C332.42 84.87 332.44 84.5 332.44 83.91V77.31C332.44 76.58 332.38 76.08 332.27 75.83C332.16 75.57 331.94 75.45 331.61 75.45C331.43 75.45 331.21 75.54 330.95 75.72C330 76.53 329 77.1 327.95 77.45C326.91 77.8 325.71 77.97 324.35 77.97C322.88 77.97 321.54 77.73 320.31 77.26C319.08 76.78 318.03 76.11 317.15 75.23C316.27 74.35 315.58 73.31 315.09 72.1C314.59 70.89 314.35 69.58 314.35 68.15C314.35 66.72 314.6 65.35 315.09 64.12C315.58 62.9 316.27 61.83 317.15 60.94C318.03 60.04 319.07 59.35 320.28 58.86C321.49 58.37 322.81 58.12 324.24 58.12C325.41 58.12 326.51 58.29 327.54 58.63C328.57 58.97 329.61 59.52 330.68 60.26C330.97 60.48 331.19 60.59 331.34 60.59C331.74 60.59 332.03 60.45 332.19 60.18C332.35 59.91 332.44 59.42 332.44 58.72V52.12C332.44 51.53 332.41 51.16 332.36 50.99C332.31 50.82 332.19 50.67 332 50.52H332.02Z" fill="black"/>
<path d="M370.41 49.54H364.52C363.75 49.5 363.24 49.6 363.01 49.84C362.77 50.08 362.67 50.58 362.71 51.35V63.68H348.91V51.35C348.95 50.58 348.85 50.08 348.61 49.84C348.37 49.6 347.87 49.5 347.1 49.54H341.22C340.45 49.5 339.95 49.6 339.71 49.84C339.47 50.08 339.37 50.58 339.41 51.35V84.4C339.37 85.17 339.47 85.67 339.71 85.91C339.95 86.15 340.45 86.25 341.22 86.21H347.1C347.87 86.25 348.37 86.15 348.61 85.91C348.85 85.67 348.95 85.17 348.91 84.4V71.14H362.71V84.4C362.67 85.17 362.77 85.67 363.01 85.91C363.25 86.15 363.75 86.25 364.52 86.21H370.41C371.18 86.25 371.68 86.15 371.92 85.91C372.16 85.67 372.26 85.17 372.22 84.4V51.35C372.26 50.58 372.16 50.08 371.92 49.84C371.68 49.6 371.18 49.5 370.41 49.54Z" fill="black"/>
<path d="M419.58 50.52C419.32 50.34 418.87 50.14 418.23 49.92C417.59 49.7 416.87 49.51 416.09 49.34C415.3 49.17 414.49 49.04 413.64 48.93C412.8 48.82 412.06 48.77 411.44 48.77C408.73 48.77 406.19 49.27 403.82 50.28C401.45 51.29 399.39 52.66 397.63 54.4C395.87 56.14 394.48 58.2 393.48 60.56C392.47 62.93 391.97 65.46 391.97 68.18C391.97 73.2 393.58 77.42 396.81 80.83C398.72 82.85 400.97 84.41 403.57 85.53C406.17 86.65 408.85 87.21 411.6 87.21C412.19 87.21 412.72 87.19 413.2 87.16C413.68 87.12 414.18 87.05 414.71 86.94C415.24 86.83 415.85 86.68 416.53 86.5C417.21 86.32 418.04 86.06 419.03 85.73C419.25 85.69 419.43 85.62 419.58 85.51C419.76 85.36 419.88 85.21 419.94 85.04C419.99 84.87 420.02 84.5 420.02 83.91V77.31C420.02 76.58 419.97 76.08 419.85 75.83C419.74 75.57 419.52 75.45 419.19 75.45C419.01 75.45 418.79 75.54 418.53 75.72C417.58 76.53 416.58 77.1 415.53 77.45C414.48 77.8 413.28 77.97 411.93 77.97C410.46 77.97 409.12 77.73 407.89 77.26C406.66 76.78 405.61 76.11 404.73 75.23C403.85 74.35 403.16 73.31 402.67 72.1C402.18 70.89 401.93 69.58 401.93 68.15C401.93 66.72 402.18 65.35 402.67 64.12C403.17 62.9 403.85 61.83 404.73 60.94C405.61 60.04 406.65 59.35 407.87 58.86C409.08 58.37 410.4 58.12 411.83 58.12C413 58.12 414.1 58.29 415.13 58.63C416.16 58.97 417.2 59.52 418.27 60.26C418.56 60.48 418.78 60.59 418.93 60.59C419.33 60.59 419.62 60.45 419.78 60.18C419.94 59.91 420.03 59.42 420.03 58.72V52.12C420.03 51.53 420 51.16 419.95 50.99C419.9 50.82 419.78 50.67 419.59 50.52H419.58Z" fill="black"/>
<path d="M455.6 83.85L445.87 71.2C446.97 70.91 447.87 70.6 448.56 70.29C449.26 69.98 449.92 69.55 450.54 69C451.6 68.08 452.43 66.91 453.01 65.48C453.6 64.05 453.89 62.51 453.89 60.86C453.89 59.32 453.61 57.85 453.07 56.46C452.52 55.07 451.75 53.84 450.76 52.78C449.7 51.64 448.45 50.82 447.02 50.31C445.59 49.8 443.83 49.54 441.74 49.54H428.76C427.99 49.5 427.48 49.6 427.25 49.84C427.01 50.08 426.91 50.58 426.95 51.35V84.4C426.91 85.17 427.01 85.67 427.25 85.91C427.49 86.15 427.99 86.25 428.76 86.21H434.64C435.41 86.25 435.91 86.15 436.15 85.91C436.39 85.67 436.49 85.17 436.45 84.4V72.14L444.81 85.12C445.18 85.67 445.44 85.99 445.61 86.08C445.77 86.17 446.19 86.22 446.85 86.22H454.44C455.14 86.22 455.62 86.15 455.9 86C456.18 85.86 456.31 85.58 456.31 85.18C456.31 85 456.26 84.83 456.17 84.68C456.08 84.53 455.89 84.26 455.59 83.85H455.6ZM443.58 63.42C443.23 64.1 442.8 64.62 442.29 64.99C441.41 65.65 440.05 65.98 438.22 65.98H436.46V56.85H438.22C439.98 56.85 441.34 57.18 442.29 57.84C442.8 58.24 443.23 58.77 443.58 59.43C443.93 60.09 444.1 60.75 444.1 61.41C444.1 62.07 443.92 62.74 443.58 63.42Z" fill="black"/>
<path d="M497.01 84.02L484.53 50.91C484.31 50.25 484.11 49.85 483.92 49.7C483.74 49.56 483.28 49.5 482.55 49.54H475.13C474.51 49.5 474.09 49.54 473.87 49.65C473.65 49.76 473.45 50.03 473.27 50.48L473.1 50.92L460.4 84.03C460.22 84.43 460.12 84.69 460.1 84.8C460.08 84.91 460.07 85.04 460.07 85.18C460.07 85.58 460.2 85.86 460.45 86C460.71 86.15 461.18 86.22 461.88 86.22H468.15C468.88 86.26 469.34 86.2 469.52 86.05C469.7 85.9 469.92 85.5 470.18 84.84L472.16 79.84H485.3L487.17 84.79C487.39 85.49 487.6 85.91 487.8 86.05C488 86.19 488.45 86.25 489.15 86.22H495.53C496.23 86.22 496.7 86.15 496.96 86C497.22 85.86 497.35 85.6 497.35 85.23C497.35 85.05 497.33 84.89 497.29 84.76C497.25 84.63 497.16 84.39 497.01 84.02ZM474.79 72.53L478.8 60.82L482.7 72.53H474.78H474.79Z" fill="black"/>
<path d="M521.26 49.54H503.94C503.17 49.5 502.66 49.6 502.43 49.84C502.19 50.08 502.09 50.58 502.13 51.35V84.4C502.09 85.17 502.19 85.67 502.43 85.91C502.67 86.15 503.17 86.25 503.94 86.21H509.82C510.59 86.25 511.09 86.15 511.33 85.91C511.57 85.67 511.67 85.17 511.63 84.4V71.81H520.26C521.03 71.85 521.53 71.75 521.77 71.51C522.01 71.27 522.11 70.77 522.07 70.01V65.59C522.11 64.83 522.01 64.33 521.77 64.09C521.53 63.85 521.03 63.75 520.26 63.79H511.63V57.58H521.25C522.06 57.62 522.58 57.52 522.82 57.28C523.06 57.04 523.16 56.54 523.12 55.78V51.36C523.16 50.59 523.06 50.09 522.82 49.86C522.58 49.63 522.06 49.52 521.25 49.56L521.26 49.54Z" fill="black"/>
<path d="M552.69 49.84C552.45 49.6 551.95 49.5 551.18 49.54H529.62C528.85 49.5 528.35 49.6 528.11 49.84C527.87 50.08 527.77 50.58 527.81 51.34V55.76C527.77 56.53 527.87 57.03 528.11 57.26C528.35 57.5 528.85 57.6 529.62 57.56H535.56V84.39C535.52 85.16 535.62 85.67 535.86 85.91C536.1 86.15 536.6 86.25 537.37 86.21H543.25C544.02 86.25 544.52 86.15 544.76 85.91C545 85.67 545.1 85.17 545.06 84.39V57.56H551.16C551.93 57.6 552.43 57.5 552.67 57.26C552.91 57.02 553.01 56.52 552.97 55.76V51.34C553.01 50.57 552.91 50.07 552.67 49.84H552.69Z" fill="black"/>
<path d="M88.27 91.62H85.94C84.72 91.62 83.73 92.61 83.73 93.83C83.73 95.05 84.72 96.04 85.94 96.04H88.27C89.49 96.04 90.48 95.05 90.48 93.83C90.48 92.61 89.49 91.62 88.27 91.62Z" fill="black"/>
<path d="M128.7 66.06C129.92 66.06 130.91 65.07 130.91 63.85C130.91 62.63 129.92 61.64 128.7 61.64C127.48 61.64 126.51 61.68 125.59 61.75V57.83C125.59 57.39 125.55 56.97 125.52 56.54H128.9C130.12 56.54 131.11 55.55 131.11 54.33C131.11 53.11 130.12 52.12 128.9 52.12H124.83C122.29 42.28 113.38 35 102.77 35H81.35C70.74 35 61.83 42.28 59.28 52.11H55.21C53.99 52.11 53 53.1 53 54.32C53 55.54 53.99 56.53 55.21 56.53H58.59C58.57 56.96 58.52 57.38 58.52 57.82V61.74C57.6 61.67 56.58 61.63 55.41 61.63C54.24 61.63 53.2 62.62 53.2 63.84C53.2 65.06 54.19 66.05 55.41 66.05C56.63 66.05 57.62 66.1 58.52 66.18V72.65C55.51 73.21 53.21 75.85 53.21 79.02V79.43C53.21 82.71 55.65 85.41 58.81 85.85C59.53 89.18 61.56 92 64.3 93.84C66.35 95.21 68.79 96.05 71.44 96.05C72.66 96.05 73.65 95.06 73.65 93.84C73.65 92.62 72.66 91.63 71.44 91.63C67.73 91.63 64.58 89.24 63.42 85.92H97.53L99.14 87.59C100.53 89.02 102.38 89.81 104.36 89.81C106.34 89.81 108.19 89.02 109.58 87.59L111.19 85.92H120.67C119.51 89.24 116.35 91.63 112.65 91.63H95.98C94.76 91.63 93.77 92.62 93.77 93.84C93.77 95.06 94.76 96.05 95.98 96.05H112.65C115.3 96.05 117.74 95.21 119.79 93.84C122.53 92 124.56 89.18 125.28 85.85C128.44 85.42 130.88 82.71 130.88 79.43V79.02C130.88 75.85 128.59 73.2 125.57 72.65V66.18C126.47 66.1 127.48 66.05 128.68 66.05L128.7 66.06ZM79.05 39.58C78.61 40.03 78.34 40.64 78.34 41.31C78.34 42.68 79.45 43.78 80.81 43.78C82.17 43.78 83.28 42.67 83.28 41.31C83.28 40.54 82.93 39.87 82.38 39.42H94.69C94.71 40.77 95.8 41.86 97.16 41.86C98.52 41.86 99.61 40.77 99.63 39.42H102.77C110.92 39.42 117.84 44.75 120.25 52.11H63.87C66.05 45.46 71.92 40.48 79.05 39.58ZM62.95 57.82C62.95 57.38 62.99 56.96 63.02 56.53H121.11C121.14 56.96 121.18 57.38 121.18 57.82V62.41C120.4 62.59 119.67 62.79 118.96 62.98C116.75 63.59 114.67 64.16 110.39 64.16C106.11 64.16 104.02 63.59 101.82 62.98C99.43 62.32 96.95 61.64 92.07 61.64C87.19 61.64 84.72 62.32 82.32 62.98C80.11 63.59 78.03 64.16 73.75 64.16C69.47 64.16 67.39 63.59 65.18 62.98C64.47 62.78 63.75 62.59 62.96 62.41V57.82H62.95ZM62.95 81.49H59.7C59.26 81.49 58.86 81.35 58.52 81.12C57.99 80.75 57.63 80.13 57.63 79.43V79.02C57.63 78.32 57.98 77.7 58.52 77.33C58.85 77.1 59.26 76.96 59.7 76.96H88.89L91.86 80.03L93.27 81.49H62.95ZM109.33 81.49L106.41 84.51C105.85 85.09 105.11 85.38 104.37 85.38C103.63 85.38 102.9 85.09 102.33 84.51L99.41 81.49L95.03 76.96H113.7L109.32 81.49H109.33ZM95.04 72.53H62.95V66.95C63.3 67.04 63.65 67.14 63.99 67.23C66.38 67.89 68.86 68.57 73.74 68.57C78.62 68.57 81.09 67.89 83.49 67.23C85.7 66.62 87.78 66.05 92.06 66.05C96.34 66.05 98.43 66.63 100.63 67.23C103.02 67.89 105.5 68.57 110.38 68.57C115.26 68.57 117.74 67.89 120.13 67.23C120.48 67.13 120.82 67.04 121.17 66.95V72.53H95.04ZM126.48 79.01V79.42C126.48 80.12 126.13 80.74 125.59 81.11C125.26 81.34 124.85 81.48 124.41 81.48H115.47L116.88 80.02L119.85 76.95H124.41C124.85 76.95 125.25 77.09 125.59 77.32C126.12 77.69 126.48 78.31 126.48 79.01Z" fill="black"/>
<path d="M79.1799 91.62H78.6499C77.4299 91.62 76.4399 92.61 76.4399 93.83C76.4399 95.05 77.4299 96.04 78.6499 96.04H79.1799C80.3999 96.04 81.3899 95.05 81.3899 93.83C81.3899 92.61 80.3999 91.62 79.1799 91.62Z" fill="black"/>
<path d="M101.45 42.68C100.08 42.68 98.98 43.79 98.98 45.15C98.98 46.51 100.09 47.62 101.45 47.62C102.81 47.62 103.92 46.51 103.92 45.15C103.92 43.79 102.81 42.68 101.45 42.68Z" fill="black"/>
<path d="M90.31 42.21C88.94 42.21 87.84 43.32 87.84 44.68C87.84 46.04 88.95 47.15 90.31 47.15C91.67 47.15 92.78 46.04 92.78 44.68C92.78 43.32 91.67 42.21 90.31 42.21Z" fill="black"/>
</g>
<defs>
<clipPath id="clip0_2099_4307">
<rect width="500" height="61.04" fill="white" transform="translate(53 35)"/>
</clipPath>
</defs>
</svg>
